PathFileType	4	(X/Y/Z)	pose_F01_0-83.trc
DataRate	CameraRate	NumFrames	NumMarkers	Units	OrigDataRate	OrigDataStartFrame	OrigNumFrames
30	30	8	21	m	30	0	83
Frame#	Time	CHip			RHip			RKnee			RAnkle			RBigToe			RSmallToe			RHeel			LHip			LKnee			LAnkle			LBigToe			LSmallToe			LHeel			Neck			Nose			RShoulder			RElbow			RWrist			LShoulder			LElbow			LWrist			
		X1	Y1	Z1	X2	Y2	Z2	X3	Y3	Z3	X4	Y4	Z4	X5	Y5	Z5	X6	Y6	Z6	X7	Y7	Z7	X8	Y8	Z8	X9	Y9	Z9	X10	Y10	Z10	X11	Y11	Z11	X12	Y12	Z12	X13	Y13	Z13	X14	Y14	Z14	X15	Y15	Z15	X16	Y16	Z16	X17	Y17	Z17	X18	Y18	Z18	X19	Y19	Z19	X20	Y20	Z20	X21	Y21	Z21	
0	0.0	-0.24074420065309396	1.879165307050906	-0.5322490626435423	-0.25589556016472764	1.878681162555185	-0.45897886896762835	-0.2560088118947207	1.7300455215035118	-0.4321149033424478													-0.22514385669948392	1.8799331931101138	-0.591844960287423	-0.21984948741065868	1.7384169221849501	-0.5531626729092716	-0.21303798726332263	1.593266288079404	-0.5411701657031578	-0.22829696567135246	1.5594219189165173	-0.6092175865349958	-0.2129663641272445	1.566955231754583	-0.6174077231999343	-0.22669687492434057	1.584286569961312	-0.5129991779677385	-0.2381382856282743	2.0512794904481235	-0.5279644392517557	-0.2511668856094721	2.131475956422765	-0.5903766072396566	-0.25959574201133934	2.049298762617691	-0.4364751453321622	-0.2682767499689952	1.9480300790905531	-0.40566042716878736	-0.2719600673964252	1.8644291008616696	-0.3812725591711149	-0.21345970757369062	2.0549767174758635	-0.6279541687312679	-1.4556213948379257	1.8759083870970545	0.7054700328557566	-0.19537910138329168	1.9026076512887669	-0.6564462420552865
1	0.03333333333333333	-0.2407258667018107	1.8787085971063897	-0.5322772612058374	-0.2559408522283224	1.8758529064502036	-0.45856559352839266	-0.25600669621069855	1.729974361975614	-0.43212241532828083													-0.22310497006761693	1.8798413572244856	-0.5940789014843874	-0.21963222494885204	1.7367280889847194	-0.553096628205069	-0.21331186352505693	1.5929933155282137	-0.5408647288311423	-0.22683006347984788	1.5596576116352054	-0.6065875694763956	-0.21258146846384302	1.567772152348397	-0.6179363136775117	-0.22669687492434057	1.584286569961312	-0.5129991779677385	-0.23811151309724446	2.0512705810680405	-0.527947327236286	-0.24824190093446333	2.130163750483664	-0.5888697577142742	-0.25955897413969103	2.049265400671895	-0.4364326552574082	-0.26604544252054196	1.9511396790677549	-0.39958405027392174	-0.2723450791730637	1.868228895010654	-0.37614216362811814	-0.21260625064470487	2.05484170821381	-0.6251597514749327	-1.4542956442653487	1.875325227828663	0.7034877181288899	-0.19617190501034673	1.9006601850965519	-0.6549756154386747
2	0.06666666666666667	-0.24070753275052745	1.8782518871618734	-0.5323054597681325	-0.2559861442919172	1.8730246503452224	-0.45815231808915696	-0.25600458052667635	1.7299032024477161	-0.4321299273141138													-0.22106608343574993	1.8797495213388575	-0.5963128426813518	-0.2194149624870454	1.7350392557844887	-0.5530305835008664	-0.21358573978679127	1.5927203429770231	-0.540559291959127	-0.2253631612883433	1.5598933043538936	-0.6039575524177954	-0.21219657280044152	1.568589072942211	-0.618464904155089	-0.22669687492434057	1.584286569961312	-0.5129991779677385	-0.23808474056621462	2.0512616716879575	-0.5279302152208163	-0.24531691625945454	2.1288515445445633	-0.5873629081888918	-0.25952220626804273	2.0492320387260987	-0.4363901651826542	-0.26381413507208873	1.9542492790449566	-0.3935076733790561	-0.27273009094970224	1.8720286891596385	-0.3710117680851214	-0.21175279371571912	2.0547066989517564	-0.6223653342185976	-1.4529698936927717	1.8747420685602714	0.7015054034020232	-0.1969647086374018	1.898712718904337	-0.6535049888220629
3	0.1	-0.23887043003073774	1.875906757371421	-0.525485091742804	-0.2549419124771912	1.8712645803366874	-0.454693868148867	-0.25600246484265415	1.7298320429198182	-0.4321374392999468													-0.22207125995315283	1.8782680597711254	-0.5907920435039132	-0.21705194603100048	1.7331089435415137	-0.5553478867995293	-0.2138596160485256	1.5924473704258328	-0.5402538550871115	-0.225544341055261	1.5584445748182827	-0.6033347756268278	-0.21237574121050057	1.5670820192729917	-0.6178427533961551	-0.22669687492434057	1.584286569961312	-0.5129991779677385	-0.23820776178186928	2.0500911939202817	-0.5279515038157487	-0.24740048215035576	2.1287788881591703	-0.5860835158787523	-0.2615053844839978	2.0481170996637132	-0.43442355211482053	-0.26763029379588804	1.9530616946532326	-0.38918107788835876	-0.2728589030154852	1.8712227767465128	-0.3708009729535525	-0.21171901516797112	2.0546648857269965	-0.6222245823309204	-1.4516441431201947	1.8741589092918798	0.6995230886751564	-0.19775751226445681	1.896765252712122	-0.6520343622054511
4	0.13333333333333333	-0.24062389887359395	1.8774080344730775	-0.5320086959580607	-0.2550009672795698	1.8728179182955547	-0.4549878772972393	-0.256000349158632	1.7297608833919205	-0.43214495128577984													-0.22300892375800943	1.8784856626719288	-0.5939089238571716	-0.21954347771635618	1.7363137049899764	-0.5530989298960352	-0.21413349231025994	1.5921743978746425	-0.5399484182150961	-0.22541355990930162	1.5606881294797628	-0.6036543814726085	-0.21241762145657223	1.5700365389153217	-0.6181435204092419	-0.22669687492434057	1.584286569961312	-0.5129991779677385	-0.24003877468918589	2.0511815138297074	-0.525825040952917	-0.24643100740127252	2.1263119190696256	-0.5819009329403617	-0.25968775651132076	2.048159979512024	-0.4364861070736449	-0.2647859842720565	1.9527264322678084	-0.3881419687271983	-0.27416540629179575	1.8716407318527104	-0.37427863296985714	-0.2117933035818429	2.054678302411535	-0.6222251145004135	-1.4503183925476177	1.8735757500234882	0.6975407739482897	-0.19855031589151184	1.894817786519907	-0.6505637355888393
5	0.16666666666666666	-0.2387346799908085	1.8789526400643697	-0.5259223309197523	-0.25486272653892006	1.875197990534988	-0.4553825000938754	-0.2559982334746098	1.7296897238640225	-0.43215246327161283													-0.22210716719374304	1.8822031962032253	-0.5913330245811123	-0.2193165642208071	1.734778302007499	-0.5531039501583187	-0.21440736857199427	1.591901425323452	-0.5396429813430808	-0.2237985174671547	1.5602362366747533	-0.6051853122090212	-0.2125029313859666	1.5674815822709998	-0.6178432331147454	-0.22669687492434057	1.584286569961312	-0.5129991779677385	-0.23814185698867196	2.0524407538171965	-0.5283805252921439	-0.24549229777922218	2.1261062077615764	-0.5789143345560125	-0.25964782086465865	2.0481893569899703	-0.4365005139527348	-0.26288969687773234	1.9542052531216012	-0.39076795177002277	-0.27554060131034097	1.8720569472990127	-0.386380603825292	-0.2117287725658467	2.0547983628483797	-0.622222221152014	-1.4489926419750407	1.8729925907550966	0.695558459221423	-0.1993431195185669	1.892870320327692	-0.6490931089722275
6	0.2	-0.23986495151770518	1.880222697470254	-0.5291966852598592	-0.2550734593022542	1.8740912902623046	-0.45521498692275275	-0.2559961177905876	1.7296185643361246	-0.4321599752574458													-0.22220370560753855	1.882123187439023	-0.5912360978083944	-0.21755551909297252	1.7366031610574282	-0.5553032066001833	-0.21468124483372858	1.5916284527722617	-0.5393375444710653	-0.2256525199768545	1.5592375090493846	-0.6031113592686954	-0.21213983065239084	1.5685047608770686	-0.6183919903657358	-0.22669687492434057	1.584286569961312	-0.5129991779677385	-0.24001903835274016	2.051171509643489	-0.5257429912044342	-0.24548064393325267	2.124798423523424	-0.5783401288577771	-0.2615249588142087	2.048087948851127	-0.4343304032607074	-0.2638696137367337	1.9530298853910906	-0.39348170479153693	-0.27426235660832465	1.873955807137571	-0.3922109936887732	-0.21166888193214772	2.053655029714708	-0.6217776776614993	-1.4547811271864428	1.8739438873178385	0.7047157393446585	-0.19905635759792117	1.9005057495924362	-0.6470265188582214
7	0.23333333333333334	-0.23872929719810523	1.8813166591778043	-0.5261261290809941	-0.2547781629635463	1.8764953712383745	-0.4554210376054109	-0.2559940021065655	1.7295474048082269	-0.43216748724327886													-0.22213408259165512	1.8846174387171526	-0.5915148747795899	-0.21922815142182264	1.737001200035123	-0.5533756106027625	-0.21495512109546291	1.5913554802210714	-0.5390321075990498	-0.2243400273826316	1.5600024183832697	-0.6007380289885272	-0.2113003069712322	1.568971809132113	-0.6152666766662248	-0.22669687492434057	1.584286569961312	-0.5129991779677385	-0.2400156000791099	2.0512076073510532	-0.5257481830266201	-0.24547578908615633	2.1248107813125334	-0.5783805571625867	-0.261501172454401	2.048101933864138	-0.43430038453061637	-0.26616540294587604	1.9519071149201774	-0.39998823374652775	-0.27357019619228445	1.875205065098967	-0.39809218362302656	-0.21167349517930134	2.053706465417929	-0.6217696957116342	-1.448469800372729	1.874917546610587	0.6932972368006622	-0.20126708272891	1.9000627100317369	-0.645293846545646
